<svg width="25" height="26" viewBox="0 0 25 26" fill="none" xmlns="http://www.w3.org/2000/svg">
<path d="M12.5 24.514C12.9375 24.5039 13.3573 24.3395 13.6852 24.0497C14.0131 23.7599 14.2279 23.3636 14.2917 22.9307H10.6389C10.7045 23.3753 10.9294 23.781 11.2718 24.0723C11.6141 24.3635 12.0506 24.5205 12.5 24.514V24.514Z" fill="white"/>
<path d="M22.5764 20.0347C21.9067 19.4377 21.3204 18.7533 20.8333 17.9999C20.3015 16.96 19.9828 15.8244 19.8958 14.6597V11.2291C19.893 10.8124 19.8558 10.3967 19.7847 9.98606C19.2381 9.8768 18.7128 9.67981 18.2292 9.40272C18.4135 9.99637 18.5072 10.6144 18.5069 11.2361V14.6666C18.592 16.0875 18.9829 17.4732 19.6528 18.7291C20.1322 19.4888 20.7011 20.1883 21.3472 20.8124H3.56249C4.2086 20.1883 4.77749 19.4888 5.25693 18.7291C5.9268 17.4732 6.31765 16.0875 6.40276 14.6666V11.2291C6.39911 10.4254 6.55402 9.62891 6.85863 8.88517C7.16323 8.14143 7.61155 7.46508 8.17791 6.89485C8.74428 6.32462 9.41756 5.8717 10.1592 5.56204C10.9008 5.25237 11.6963 5.09204 12.5 5.09022C13.6762 5.09116 14.826 5.43901 15.8055 6.09022C15.6976 5.69369 15.637 5.28575 15.625 4.87495V4.43745C14.8999 4.08075 14.1209 3.84612 13.3194 3.743V2.868C13.3194 2.62212 13.2218 2.38632 13.0479 2.21245C12.874 2.03859 12.6382 1.94092 12.3923 1.94092C12.1465 1.94092 11.9107 2.03859 11.7368 2.21245C11.5629 2.38632 11.4653 2.62212 11.4653 2.868V3.77772C9.67062 4.03089 8.02816 4.92477 6.84111 6.29434C5.65406 7.66392 5.00258 9.41671 5.00693 11.2291V14.6597C4.91996 15.8244 4.60122 16.96 4.06943 17.9999C3.59088 18.7516 3.01401 19.4359 2.35415 20.0347C2.28008 20.0997 2.22071 20.1799 2.18 20.2697C2.13929 20.3595 2.11817 20.4569 2.11804 20.5555V21.4999C2.11804 21.6841 2.19121 21.8608 2.32144 21.991C2.45167 22.1212 2.62831 22.1944 2.81249 22.1944H22.118C22.3022 22.1944 22.4789 22.1212 22.6091 21.991C22.7393 21.8608 22.8125 21.6841 22.8125 21.4999V20.5555C22.8124 20.4569 22.7912 20.3595 22.7505 20.2697C22.7098 20.1799 22.6505 20.0997 22.5764 20.0347V20.0347Z" fill="white"/>
<path d="M20.8333 8.34728C22.751 8.34728 24.3055 6.79271 24.3055 4.87505C24.3055 2.9574 22.751 1.40283 20.8333 1.40283C18.9157 1.40283 17.3611 2.9574 17.3611 4.87505C17.3611 6.79271 18.9157 8.34728 20.8333 8.34728Z" fill="#FF0000"/>
</svg>
